<?xml version="1.0" standalone="no"?>
<!DOCTYPE svg PUBLIC "-//W3C//DTD SVG 20010904//EN"
 "http://www.w3.org/TR/2001/REC-SVG-20010904/DTD/svg10.dtd">
<svg version="1.0" xmlns="http://www.w3.org/2000/svg"
 width="940.000000pt" height="788.000000pt" viewBox="0 0 940.000000 788.000000"
 preserveAspectRatio="xMidYMid meet">

<g transform="translate(0.000000,788.000000) scale(0.100000,-0.100000)"
fill="#000000" stroke="none">
<path d="M920 5280 c-194 -21 -317 -90 -440 -246 -24 -30 -69 -127 -84 -180
-15 -54 -29 -141 -46 -279 -6 -49 -15 -121 -20 -160 -5 -38 -14 -109 -20 -157
-6 -49 -16 -125 -22 -170 -17 -122 -15 -283 4 -345 50 -159 174 -266 349 -299
103 -19 380 -19 456 1 113 30 200 79 283 163 116 116 162 230 189 467 7 55 16
135 21 178 6 42 14 113 20 157 5 44 14 117 20 163 29 238 30 249 19 325 -27
184 -135 313 -306 368 -57 18 -310 27 -423 14z m225 -435 c30 -29 30 -29 5
-230 -11 -88 -29 -239 -40 -335 -44 -360 -46 -372 -80 -402 -37 -34 -58 -35
-95 -6 -27 21 -27 23 -21 97 3 42 10 110 15 151 6 41 14 113 20 160 6 47 15
123 21 170 10 80 20 159 36 293 6 47 13 66 39 93 38 40 67 43 100 9z"/>
<path d="M1761 5263 c-82 -4 -100 -16 -101 -67 0 -20 14 -43 46 -79 52 -58 74
-104 74 -154 0 -19 -9 -106 -20 -192 -11 -86 -29 -232 -40 -326 -11 -93 -25
-205 -30 -247 -19 -145 -29 -233 -40 -333 -16 -140 -28 -185 -58 -224 -30 -41
-104 -111 -115 -111 -14 0 -25 -44 -15 -62 8 -17 33 -18 302 -18 245 0 296 2
306 15 12 14 26 114 80 572 6 48 16 93 22 100 8 10 46 13 143 13 94 0 136 4
143 13 9 11 14 38 42 234 12 85 13 143 2 160 -5 9 -50 13 -142 15 l-135 3 3
70 c2 39 9 99 15 135 l12 65 257 3 c246 2 258 3 268 22 10 19 15 52 40 270 6
47 13 91 15 99 3 8 0 18 -7 23 -12 7 -907 8 -1067 1z"/>
<path d="M2923 5262 c-6 -4 -14 -32 -18 -62 -5 -53 -10 -87 -36 -282 l-11 -88
-73 0 c-68 0 -73 -2 -79 -23 -8 -35 -28 -205 -31 -272 -4 -85 -34 -332 -46
-379 -6 -21 -15 -78 -20 -125 -11 -93 -22 -185 -41 -326 -6 -49 -12 -126 -12
-170 l-1 -80 564 -3 c377 -1 568 1 576 8 7 6 18 46 24 90 12 92 30 233 34 270
2 23 6 25 52 25 58 0 55 27 27 -212 -11 -90 -15 -158 -10 -168 8 -13 41 -15
232 -15 l224 0 10 28 c6 15 13 54 17 87 3 33 10 92 15 130 17 139 31 251 39
320 5 39 13 81 19 95 8 22 10 16 16 -40 4 -36 18 -157 32 -270 13 -113 25
-236 27 -275 l3 -70 244 0 245 0 -1 50 c0 45 -6 88 -34 270 -16 105 -29 188
-40 260 -5 39 -14 99 -19 134 l-10 65 72 75 c65 69 103 128 138 216 51 133 53
360 3 490 -26 67 -115 169 -180 203 -81 43 -98 45 -457 49 -192 3 -358 2 -371
-1 -18 -4 -22 -13 -24 -58 -1 -29 -6 -82 -11 -118 -6 -36 -15 -109 -22 -162
l-13 -98 -72 0 c-84 0 -81 4 -95 -120 -5 -47 -14 -121 -20 -165 -5 -44 -14
-116 -19 -160 -5 -44 -14 -114 -19 -155 -5 -41 -14 -118 -21 -170 -6 -52 -14
-115 -18 -140 l-7 -45 -239 -3 -238 -2 6 72 c4 40 12 103 17 141 l11 67 137 0
c152 0 171 7 171 64 0 26 3 52 31 244 16 114 19 112 -147 112 -73 0 -135 3
-137 8 -8 14 25 257 37 264 6 4 122 8 258 8 244 0 247 0 262 22 9 12 16 37 16
56 0 18 4 63 10 100 29 198 31 225 18 234 -16 10 -979 10 -995 0z m1643 -433
c38 -32 47 -69 34 -143 -20 -112 -44 -143 -125 -160 -50 -10 -57 2 -46 75 6
35 15 102 22 149 6 47 14 89 17 94 6 11 79 1 98 -15z"/>
<path d="M5180 5261 l-85 -6 -3 -43 c-3 -38 1 -48 38 -90 68 -76 83 -114 75
-187 -5 -47 -3 -64 8 -73 10 -9 63 -12 165 -13 158 0 221 -16 85 -21 l-78 -3
-22 -175 c-12 -96 -27 -213 -32 -260 -10 -81 -18 -145 -41 -332 -6 -46 -15
-121 -21 -168 -6 -47 -14 -116 -19 -155 -27 -216 -30 -258 -19 -271 9 -11 70
-14 305 -14 291 0 293 0 308 22 9 12 16 39 16 58 0 20 4 61 9 91 5 30 14 101
21 159 6 58 15 134 20 170 10 73 15 118 70 564 22 176 43 323 47 327 5 5 80
10 168 11 l160 3 12 26 c14 28 30 147 40 288 4 65 3 85 -8 92 -15 9 -1077 9
-1219 0z"/>
<path d="M6798 5263 c-73 -4 -79 -5 -91 -31 -8 -15 -51 -142 -96 -282 -46
-140 -87 -263 -92 -272 -5 -10 -9 -25 -9 -33 0 -8 -4 -23 -9 -33 -5 -9 -50
-145 -101 -302 -51 -157 -96 -294 -100 -305 -43 -109 -169 -525 -164 -538 6
-15 34 -17 304 -17 226 0 300 3 308 13 5 6 20 55 33 107 12 52 27 101 32 108
11 14 138 16 202 3 l40 -9 -36 -1 c-41 -1 -54 -13 -62 -56 -3 -16 -11 -50 -17
-75 -23 -94 -56 -85 295 -85 l310 0 4 35 c2 19 -2 94 -8 165 -7 72 -16 184
-22 250 -5 66 -14 172 -19 235 -5 63 -14 174 -20 245 -6 72 -15 180 -20 240
-5 61 -14 171 -20 245 -25 318 -32 375 -48 388 -12 9 -78 11 -266 10 -138 -1
-286 -4 -328 -5z m246 -825 c3 -50 6 -151 6 -225 l0 -133 -66 0 -66 0 5 28 c6
28 21 91 37 152 9 35 19 74 40 160 6 25 14 60 17 78 9 57 20 34 27 -60z"/>
<path d="M7690 5245 c0 -7 7 -40 16 -72 9 -32 20 -74 24 -93 5 -19 14 -53 20
-75 6 -22 15 -56 20 -75 5 -19 14 -53 20 -75 6 -22 15 -56 20 -75 5 -19 18
-70 29 -112 12 -43 30 -113 42 -155 43 -163 44 -146 -15 -263 -29 -58 -81
-159 -115 -225 l-63 -120 1 -92 c1 -50 5 -112 10 -136 7 -39 4 -52 -30 -123
-20 -43 -34 -83 -30 -87 13 -14 406 -21 429 -8 23 12 31 30 119 240 54 130 71
159 84 143 3 -4 11 -41 18 -82 7 -41 17 -91 22 -111 13 -52 11 -70 -10 -115
-40 -82 -57 -76 221 -80 209 -4 249 -2 261 11 16 15 16 16 -9 110 -9 33 -20
76 -24 95 -5 19 -14 53 -20 75 -6 22 -15 56 -20 75 -5 19 -14 53 -20 75 -12
41 -22 81 -39 150 -5 22 -15 58 -21 80 -6 22 -15 56 -20 75 -5 19 -14 53 -20
75 -27 95 -54 31 297 713 69 134 122 249 119 257 -4 13 -49 15 -283 15 -190
-1 -273 -4 -261 -11 31 -17 50 -127 29 -167 -5 -9 -13 -28 -19 -42 -55 -136
-74 -173 -87 -172 -10 1 -25 71 -45 207 -16 115 -29 168 -44 177 -6 4 -145 8
-308 8 -254 0 -298 -2 -298 -15z"/>
</g>
</svg>
